<?xml version="1.0" ?><svg id="Layer_1" style="enable-background:new 0 0 512 512;" version="1.1" viewBox="0 0 512 512" xml:space="preserve" xmlns="http://www.w3.org/2000/svg" xmlns:xlink="http://www.w3.org/1999/xlink"><style type="text/css">
	.st0{fill:#E9E8E8;}
	.st1{fill-rule:evenodd;clip-rule:evenodd;fill:#3865B0;}
	.st2{fill-rule:evenodd;clip-rule:evenodd;fill:#ED2183;}
</style><g><path class="st0" d="M512,397.1c0,63.5-51.5,114.9-114.9,114.9H114.9C51.5,512,0,460.5,0,397.1V114.9C0,51.4,51.5,0,114.9,0h282.2   C460.5,0,512,51.4,512,114.9V397.1z"/><g><path class="st1" d="M239.2,256c0,32.2-26.1,58.2-58.2,58.2c-32.2,0-58.2-26.1-58.2-58.2c0-32.2,26.1-58.2,58.2-58.2    C213.2,197.8,239.2,223.8,239.2,256z"/><path class="st2" d="M389.2,256c0,32.2-26,58.2-58.2,58.2c-32.1,0-58.2-26.1-58.2-58.2c0-32.2,26.1-58.2,58.2-58.2    C363.1,197.8,389.2,223.8,389.2,256z"/></g></g></svg>